<svg xmlns="http://www.w3.org/2000/svg" viewBox="0 0 23.97 22.909">
  <defs>
    <style>
      .cls-1 {
        fill: #fff;
      }
    </style>
  </defs>
  <g id="Linkedin_icon" data-name="Linkedin icon" transform="translate(0 -9.708)">
    <g id="Group_8" data-name="Group 8" transform="translate(0 9.708)">
      <rect id="Rectangle_15" data-name="Rectangle 15" class="cls-1" width="5.15" height="15.465" transform="translate(0.296 7.444)"/>
      <path id="Path_149" data-name="Path 149" class="cls-1" d="M165.658,141.1a5.542,5.542,0,0,0-4.291-1.771,6.186,6.186,0,0,0-1.787.242,4.055,4.055,0,0,0-1.358.679,5.814,5.814,0,0,0-1.49,1.637v-2.2H151.6l.016.749q.016.749.016,4.619t-.031,10.1h5.134v-8.63a3.769,3.769,0,0,1,.172-1.264,3.315,3.315,0,0,1,.991-1.334,2.527,2.527,0,0,1,1.647-.539,2.22,2.22,0,0,1,1.974.929,4.515,4.515,0,0,1,.632,2.567v8.271h5.134v-8.863A7.43,7.43,0,0,0,165.658,141.1Z" transform="translate(-143.311 -132.246)"/>
      <path id="Path_150" data-name="Path 150" class="cls-1" d="M2.9,9.708a2.938,2.938,0,0,0-2.1.757A2.513,2.513,0,0,0,0,12.377a2.557,2.557,0,0,0,.78,1.9,2.816,2.816,0,0,0,2.06.765h.031a2.94,2.94,0,0,0,2.115-.765,2.47,2.47,0,0,0,.788-1.9,2.6,2.6,0,0,0-.8-1.912A2.854,2.854,0,0,0,2.9,9.708Z" transform="translate(0 -9.708)"/>
    </g>
  </g>
</svg>
