<svg id="expand" xmlns="http://www.w3.org/2000/svg" viewBox="0 0 23.661 23.661">
  <defs>
    <style>
      .cls-1 {
        fill: #f3f3f3;
      }
    </style>
  </defs>
  <g id="Group_1" data-name="Group 1">
    <path id="Path_143" data-name="Path 143" class="cls-1" d="M0,.595V23.066a.594.594,0,0,0,.595.595H11.427a.595.595,0,0,0,0-1.19H1.185V1.185H22.471V11.364a.595.595,0,1,0,1.19,0V.595A.594.594,0,0,0,23.066,0H.595A.594.594,0,0,0,0,.595Z"/>
    <path id="Path_144" data-name="Path 144" class="cls-1" d="M303.725,303.13v-8.235a.594.594,0,0,0-.595-.595h-8.235a.594.594,0,0,0-.595.595v8.24a.594.594,0,0,0,.595.595h8.24A.6.6,0,0,0,303.725,303.13Zm-1.185-.59h-7.055v-7.055h7.055Z" transform="translate(-280.069 -280.069)"/>
    <path id="Path_145" data-name="Path 145" class="cls-1" d="M92.28,86.395a.594.594,0,0,0-.595-.595h-5.29a.594.594,0,0,0-.595.595v5.3a.595.595,0,0,0,1.19,0V87.821L93.7,94.528a.593.593,0,0,0,.841-.837l-6.717-6.707h3.864A.593.593,0,0,0,92.28,86.395Z" transform="translate(-81.651 -81.651)"/>
  </g>
</svg>
