<svg xmlns="http://www.w3.org/2000/svg" viewBox="0 0 15.362 12.478">
  <defs>
    <style>
      .cls-1 {
        fill: var(--primary-color);
      }
    </style>
  </defs>
  <g id="Twitter_icon" data-name="Twitter icon" transform="translate(61.999 -54.441)">
    <g id="Group_7" data-name="Group 7" transform="translate(-61.999 54.441)">
      <path id="Path_148" data-name="Path 148" class="cls-1" d="M15.363,58.917a6.293,6.293,0,0,1-1.81.5,3.164,3.164,0,0,0,1.385-1.742,6.353,6.353,0,0,1-2,.765,3.154,3.154,0,0,0-5.37,2.873,8.947,8.947,0,0,1-6.495-3.293,3.155,3.155,0,0,0,.975,4.206,3.152,3.152,0,0,1-1.427-.4v.039a3.155,3.155,0,0,0,2.528,3.09,3.192,3.192,0,0,1-.83.11,3.025,3.025,0,0,1-.593-.059A3.153,3.153,0,0,0,4.666,67.2,6.323,6.323,0,0,1,.753,68.545,6.7,6.7,0,0,1,0,68.5a8.908,8.908,0,0,0,4.83,1.418A8.9,8.9,0,0,0,13.8,60.953l-.011-.408A6.293,6.293,0,0,0,15.363,58.917Z" transform="translate(-0.001 -57.441)"/>
    </g>
  </g>
</svg>
