<svg xmlns="http://www.w3.org/2000/svg" viewBox="0 0 23.281 18.911">
  <defs>
    <style>
      .cls-1 {
        fill: #fff;
      }
    </style>
  </defs>
  <g id="Twitter_icon" data-name="Twitter icon" transform="translate(61.999 -54.441)">
    <g id="Group_7" data-name="Group 7" transform="translate(-61.999 54.441)">
      <path id="Path_148" data-name="Path 148" class="cls-1" d="M23.282,59.678a9.537,9.537,0,0,1-2.742.752,4.8,4.8,0,0,0,2.1-2.64A9.628,9.628,0,0,1,19.6,58.95,4.78,4.78,0,0,0,11.466,63.3a13.559,13.559,0,0,1-9.843-4.99A4.781,4.781,0,0,0,3.1,64.689a4.776,4.776,0,0,1-2.163-.6v.06a4.781,4.781,0,0,0,3.831,4.683A4.838,4.838,0,0,1,3.51,69a4.584,4.584,0,0,1-.9-.089,4.778,4.778,0,0,0,4.46,3.317A9.582,9.582,0,0,1,1.14,74.269,10.151,10.151,0,0,1,0,74.2a13.5,13.5,0,0,0,7.321,2.149A13.494,13.494,0,0,0,20.91,62.764l-.016-.618A9.537,9.537,0,0,0,23.282,59.678Z" transform="translate(-0.001 -57.441)"/>
    </g>
  </g>
</svg>
